<svg xmlns="http://www.w3.org/2000/svg" style="display: none;">
<symbol viewBox="0 0 22 22" id="calendar">
<title>calendar</title> 
<path d="M15.5833 2.75001H19.25C19.4931 2.75001 19.7263 2.84658 19.8982 3.01849C20.0701 3.1904 20.1666 3.42356 20.1666 3.66667V18.3333C20.1666 18.5765 20.0701 18.8096 19.8982 18.9815C19.7263 19.1534 19.4931 19.25 19.25 19.25H2.74998C2.50686 19.25 2.27371 19.1534 2.1018 18.9815C1.92989 18.8096 1.83331 18.5765 1.83331 18.3333V3.66667C1.83331 3.42356 1.92989 3.1904 2.1018 3.01849C2.27371 2.84658 2.50686 2.75001 2.74998 2.75001H6.41665V0.916672H8.24998V2.75001H13.75V0.916672H15.5833V2.75001ZM13.75 4.58334H8.24998V6.41667H6.41665V4.58334H3.66665V8.25001H18.3333V4.58334H15.5833V6.41667H13.75V4.58334ZM18.3333 10.0833H3.66665V17.4167H18.3333V10.0833Z" fill="#7C7C7C"/>
</symbol>
<symbol viewBox="0 0 22 22" id="phone">
<title>phone</title> 
<path d="M8.5855 9.79183C9.44564 11.3029 10.6971 12.5544 12.2082 13.4145L13.0185 12.2797C13.1488 12.0972 13.3415 11.9688 13.5601 11.9188C13.7787 11.8688 14.008 11.9007 14.2047 12.0083C15.5011 12.7168 16.9329 13.143 18.4058 13.2587C18.6356 13.2769 18.8502 13.3811 19.0067 13.5505C19.1631 13.7198 19.25 13.942 19.25 14.1726V18.2628C19.25 18.4897 19.1659 18.7086 19.0138 18.8771C18.8618 19.0456 18.6526 19.1517 18.4268 19.1748C17.941 19.2253 17.4515 19.25 16.9583 19.25C9.11167 19.25 2.75 12.8883 2.75 5.04167C2.75 4.5485 2.77475 4.059 2.82517 3.57317C2.84832 3.34739 2.9544 3.13823 3.12289 2.98616C3.29138 2.8341 3.51029 2.74995 3.73725 2.75H7.82742C8.05802 2.74997 8.28015 2.83686 8.44954 2.99333C8.61893 3.1498 8.72312 3.36437 8.74133 3.59425C8.85704 5.06714 9.28315 6.49887 9.99167 7.79533C10.0993 7.99202 10.1312 8.22135 10.0812 8.43993C10.0312 8.65851 9.90281 8.85119 9.72033 8.9815L8.5855 9.79183ZM6.27367 9.18958L8.01533 7.94567C7.52105 6.87875 7.18241 5.74644 7.00975 4.58333H4.5925C4.587 4.7355 4.58425 4.88858 4.58425 5.04167C4.58333 11.8763 10.1237 17.4167 16.9583 17.4167C17.1114 17.4167 17.2645 17.4139 17.4167 17.4075V14.9903C16.2536 14.8176 15.1212 14.4789 14.0543 13.9847L12.8104 15.7263C12.3096 15.5317 11.8232 15.302 11.3548 15.0388L11.3016 15.0086C9.50361 13.9853 8.01467 12.4964 6.99142 10.6984L6.96117 10.6453C6.698 10.1768 6.46826 9.69039 6.27367 9.18958Z" fill="#7C7C7C"/>
</symbol >
<symbol viewBox="0 0 22 22" id="location">
<title>location</title> 
<path d="M15.6603 14.4943C16.5224 13.5835 17.0986 12.4401 17.3179 11.2053C17.5371 9.97055 17.3897 8.69862 16.8939 7.54672C16.3981 6.39482 15.5756 5.41345 14.5281 4.72391C13.4807 4.03437 12.2541 3.6669 11 3.6669C9.74593 3.6669 8.51935 4.03437 7.47186 4.72391C6.42438 5.41345 5.60191 6.39482 5.10611 7.54672C4.61031 8.69862 4.46291 9.97055 4.68215 11.2053C4.90138 12.4401 5.47763 13.5835 6.33967 14.4943C6.83436 13.7049 7.52158 13.0542 8.33678 12.6033C9.15198 12.1525 10.0684 11.9162 11 11.9167C11.9316 11.9162 12.848 12.1525 13.6632 12.6033C14.4784 13.0542 15.1656 13.7049 15.6603 14.4943ZM7.68625 15.8446L11 19.1574L14.3138 15.8446C14.0166 15.2172 13.5474 14.687 12.9608 14.3158C12.3742 13.9446 11.6942 13.7475 11 13.7475C10.3058 13.7475 9.62583 13.9446 9.03921 14.3158C8.45259 14.687 7.98342 15.2172 7.68625 15.8446ZM11 21.7507L5.16634 15.917C4.01256 14.7632 3.22684 13.2932 2.90852 11.6929C2.5902 10.0925 2.75358 8.43373 3.37801 6.92624C4.00243 5.41876 5.05986 4.13029 6.41656 3.22377C7.77326 2.31726 9.36831 1.8334 11 1.8334C12.6317 1.8334 14.2267 2.31726 15.5834 3.22377C16.9402 4.13029 17.9976 5.41876 18.622 6.92624C19.2464 8.43373 19.4098 10.0925 19.0915 11.6929C18.7732 13.2932 17.9874 14.7632 16.8337 15.917L11 21.7507ZM11 9.16667C11.2431 9.16667 11.4763 9.07009 11.6482 8.89818C11.8201 8.72627 11.9167 8.49311 11.9167 8.25C11.9167 8.00688 11.8201 7.77373 11.6482 7.60182C11.4763 7.42991 11.2431 7.33333 11 7.33333C10.7569 7.33333 10.5237 7.42991 10.3518 7.60182C10.1799 7.77373 10.0833 8.00688 10.0833 8.25C10.0833 8.49311 10.1799 8.72627 10.3518 8.89818C10.5237 9.07009 10.7569 9.16667 11 9.16667ZM11 11C10.2707 11 9.57118 10.7103 9.05546 10.1945C8.53973 9.67882 8.25 8.97934 8.25 8.25C8.25 7.52065 8.53973 6.82118 9.05546 6.30546C9.57118 5.78973 10.2707 5.5 11 5.5C11.7293 5.5 12.4288 5.78973 12.9445 6.30546C13.4603 6.82118 13.75 7.52065 13.75 8.25C13.75 8.97934 13.4603 9.67882 12.9445 10.1945C12.4288 10.7103 11.7293 11 11 11Z" fill="#7C7C7C"/>
</symbol>
<symbol viewBox="0 0 22 22" id="filter">
<path d="M12.8334 12.8333V18.3333L9.16669 20.1667V12.8333L3.66669 4.58333V2.75H18.3334V4.58333L12.8334 12.8333ZM5.87035 4.58333L11 12.2778L16.1297 4.58333H5.87035Z" fill="#555555"/>
</symbol>
<symbol viewBox="0 0 22 22" id="add">
<path d="M10.0833 10.0833V6.41668H11.9166V10.0833H15.5833V11.9167H11.9166V15.5833H10.0833V11.9167H6.41665V10.0833H10.0833ZM11 20.1667C5.93723 20.1667 1.83331 16.0628 1.83331 11C1.83331 5.93726 5.93723 1.83334 11 1.83334C16.0627 1.83334 20.1666 5.93726 20.1666 11C20.1666 16.0628 16.0627 20.1667 11 20.1667ZM11 18.3333C12.9449 18.3333 14.8102 17.5607 16.1854 16.1855C17.5607 14.8102 18.3333 12.9449 18.3333 11C18.3333 9.05509 17.5607 7.18983 16.1854 5.81456C14.8102 4.43929 12.9449 3.66668 11 3.66668C9.05506 3.66668 7.1898 4.43929 5.81453 5.81456C4.43926 7.18983 3.66665 9.05509 3.66665 11C3.66665 12.9449 4.43926 14.8102 5.81453 16.1855C7.1898 17.5607 9.05506 18.3333 11 18.3333Z" fill="#303030"/>
</symbol>
<symbol viewBox="0 0 45 35" id="coloredPhone">
<rect x="0.486572" width="43.6558" height="35" rx="4" fill="#89F2A6" fill-opacity="0.66"/>
<path d="M33.2285 22.0517V25.293C33.2286 25.5251 33.1189 25.7486 32.9216 25.9183C32.7243 26.0881 32.4539 26.1916 32.1652 26.2078C31.6655 26.2353 31.2573 26.25 30.9418 26.25C20.8378 26.25 12.6479 19.6839 12.6479 11.5833C12.6479 11.3303 12.665 11.0031 12.7005 10.6025C12.7207 10.371 12.8498 10.1543 13.0616 9.99604C13.2733 9.83782 13.5521 9.7499 13.8416 9.75H17.8845C18.0263 9.74989 18.1631 9.79204 18.2684 9.86827C18.3736 9.9445 18.4397 10.0494 18.4539 10.1625C18.4802 10.3733 18.5042 10.5411 18.5271 10.6685C18.7543 11.9398 19.22 13.1763 19.9083 14.3361C20.0169 14.5194 19.946 14.7385 19.7402 14.8558L17.2728 16.2693C18.7814 19.0876 21.5828 21.3335 25.098 22.543L26.8588 20.5685C26.9308 20.4878 27.0358 20.43 27.1555 20.405C27.2752 20.3801 27.4021 20.3896 27.5139 20.4319C28.9603 20.9827 30.5022 21.3551 32.0874 21.5365C32.2463 21.5548 32.4556 21.575 32.7163 21.5952C32.8572 21.6067 32.9877 21.6599 33.0825 21.7442C33.1774 21.8285 33.2298 21.9381 33.2296 22.0517H33.2285Z" fill="#00C938"/>
</symbol>
<symbol viewBox="0 0 45 35" id="coloredMail">
<rect x="0.486572" width="43.6558" height="35" rx="4" fill="#F2E189" fill-opacity="0.66"/>
<g clip-path="url(#clip0_127_87)">
<path d="M30.7165 14.7852C31.8508 15.2281 33.1354 15.3592 34.3719 15.1583V25.3333C34.3719 25.5764 34.2514 25.8096 34.037 25.9815C33.8225 26.1534 33.5317 26.25 33.2285 26.25H12.6479C12.3446 26.25 12.0538 26.1534 11.8394 25.9815C11.625 25.8096 11.5045 25.5764 11.5045 25.3333V10.6667C11.5045 10.4235 11.625 10.1904 11.8394 10.0185C12.0538 9.84657 12.3446 9.75 12.6479 9.75H27.626C27.5505 10.0461 27.5117 10.3532 27.5117 10.6667C27.5098 11.7557 27.9935 12.8094 28.8757 13.6376L23.0079 17.7094L15.6744 12.7182L14.1949 14.1152L23.0217 20.1239L30.7165 14.7852ZM33.2285 13.4167C32.778 13.4167 32.332 13.3455 31.9158 13.2073C31.4997 13.0691 31.1216 12.8666 30.803 12.6112C30.4845 12.3558 30.2319 12.0527 30.0595 11.719C29.8871 11.3854 29.7984 11.0278 29.7984 10.6667C29.7984 10.3055 29.8871 9.94793 30.0595 9.61428C30.2319 9.28064 30.4845 8.97748 30.803 8.72212C31.1216 8.46676 31.4997 8.2642 31.9158 8.126C32.332 7.98779 32.778 7.91666 33.2285 7.91666C34.1382 7.91666 35.0107 8.2064 35.6539 8.72212C36.2972 9.23785 36.6586 9.93732 36.6586 10.6667C36.6586 11.396 36.2972 12.0955 35.6539 12.6112C35.0107 13.1269 34.1382 13.4167 33.2285 13.4167Z" fill="#FFB422"/>
</g>
<defs>
<clipPath id="clip0_127_87">
<rect width="27.4408" height="22" fill="white" transform="translate(9.21777 7)"/>
</clipPath>
</defs>
</symbol>
<symbol viewBox="0 0 45 35" id="coloredText">
<rect x="0.486572" width="43.6558" height="35" rx="4" fill="#7FD1FF" fill-opacity="0.66"/>
<path d="M20.6515 9.75H25.2249C27.6508 9.75 29.9774 10.5226 31.6928 11.8979C33.4082 13.2732 34.3719 15.1384 34.3719 17.0833C34.3719 19.0283 33.4082 20.8935 31.6928 22.2688C29.9774 23.6441 27.6508 24.4167 25.2249 24.4167V27.625C19.5081 25.7917 11.5045 23.0417 11.5045 17.0833C11.5045 15.1384 12.4682 13.2732 14.1836 11.8979C15.899 10.5226 18.2255 9.75 20.6515 9.75ZM22.9382 22.5833H25.2249C26.1258 22.5833 27.0179 22.4411 27.8502 22.1647C28.6825 21.8883 29.4388 21.4831 30.0758 20.9724C30.7128 20.4617 31.2182 19.8554 31.5629 19.1881C31.9077 18.5208 32.0851 17.8056 32.0851 17.0833C32.0851 16.3611 31.9077 15.6459 31.5629 14.9786C31.2182 14.3113 30.7128 13.705 30.0758 13.1942C29.4388 12.6835 28.6825 12.2784 27.8502 12.002C27.0179 11.7256 26.1258 11.5833 25.2249 11.5833H20.6515C18.832 11.5833 17.0871 12.1628 15.8006 13.1942C14.514 14.2257 13.7913 15.6246 13.7913 17.0833C13.7913 20.3925 16.6062 22.5522 22.9382 24.8567V22.5833Z" fill="#2681ED"/>
</symbol>
<symbol viewBox="0 0 24 24" id="search">
<g clip-path="url(#clip0_1_56454)">
<path d="M3 10C3 10.9193 3.18106 11.8295 3.53284 12.6788C3.88463 13.5281 4.40024 14.2997 5.05025 14.9497C5.70026 15.5998 6.47194 16.1154 7.32122 16.4672C8.1705 16.8189 9.08075 17 10 17C10.9193 17 11.8295 16.8189 12.6788 16.4672C13.5281 16.1154 14.2997 15.5998 14.9497 14.9497C15.5998 14.2997 16.1154 13.5281 16.4672 12.6788C16.8189 11.8295 17 10.9193 17 10C17 9.08075 16.8189 8.1705 16.4672 7.32122C16.1154 6.47194 15.5998 5.70026 14.9497 5.05025C14.2997 4.40024 13.5281 3.88463 12.6788 3.53284C11.8295 3.18106 10.9193 3 10 3C9.08075 3 8.1705 3.18106 7.32122 3.53284C6.47194 3.88463 5.70026 4.40024 5.05025 5.05025C4.40024 5.70026 3.88463 6.47194 3.53284 7.32122C3.18106 8.1705 3 9.08075 3 10Z" stroke="#555555" stroke-width="1.5" stroke-linecap="round" stroke-linejoin="round"/>
<path d="M21 21L15 15" stroke="#555555" stroke-width="1.5" stroke-linecap="round" stroke-linejoin="round"/>
</g>

</symbol>
<symbol viewBox="0 0 24 24" id="info">
<path d="M12 9H12.01" stroke="#555555" stroke-width="1.5" stroke-linecap="round" stroke-linejoin="round"/>
<path d="M11 12H12V16H13" stroke="#555555" stroke-width="1.5" stroke-linecap="round" stroke-linejoin="round"/>
<path d="M12 3C19.2 3 21 4.8 21 12C21 19.2 19.2 21 12 21C4.8 21 3 19.2 3 12C3 4.8 4.8 3 12 3Z" stroke="#555555" stroke-width="1.5" stroke-linecap="round" stroke-linejoin="round"/>
</g>
<defs>
<clipPath id="clip0_1_54811">
<rect width="24" height="24" fill="white"/>
</clipPath>
</defs>
</symbol>

<symbol viewBox="0 0 24 24" id="next">
<path d="M1 10C1 11.1819 1.23279 12.3522 1.68508 13.4442C2.13738 14.5361 2.80031 15.5282 3.63604 16.364C4.47177 17.1997 5.46392 17.8626 6.55585 18.3149C7.64778 18.7672 8.8181 19 10 19C11.1819 19 12.3522 18.7672 13.4442 18.3149C14.5361 17.8626 15.5282 17.1997 16.364 16.364C17.1997 15.5282 17.8626 14.5361 18.3149 13.4442C18.7672 12.3522 19 11.1819 19 10C19 7.61305 18.0518 5.32387 16.364 3.63604C14.6761 1.94821 12.3869 1 10 1C7.61305 1 5.32387 1.94821 3.63604 3.63604C1.94821 5.32387 1 7.61305 1 10Z" stroke="black" stroke-width="1.5" stroke-linecap="round" stroke-linejoin="round"/>
</symbol>

<symbol viewBox="0 0 24 24" id="prev">
<path d="M19 10C19 8.8181 18.7672 7.64778 18.3149 6.55585C17.8626 5.46392 17.1997 4.47177 16.364 3.63604C15.5282 2.80031 14.5361 2.13738 13.4442 1.68508C12.3522 1.23279 11.1819 1 10 1C8.8181 1 7.64778 1.23279 6.55585 1.68508C5.46392 2.13738 4.47177 2.80031 3.63604 3.63604C2.80031 4.47177 2.13738 5.46392 1.68508 6.55585C1.23279 7.64778 1 8.8181 1 10C1 12.3869 1.94821 14.6761 3.63604 16.364C5.32387 18.0518 7.61305 19 10 19C12.3869 19 14.6761 18.0518 16.364 16.364C18.0518 14.6761 19 12.3869 19 10Z" stroke="black" stroke-width="1.5" stroke-linecap="round" stroke-linejoin="round"/>
</symbol>



</svg>